HIERARCHY
ROOT Hips
{
	OFFSET -3.958830 18.904000 13.208200
	CHANNELS 6 Xposition Yposition Zposition Zrotation Yrotation Xrotation 
	JOINT LHipJoint
	{
		OFFSET 0.000000 0.000000 0.000000
		CHANNELS 3 Zrotation Yrotation Xrotation
		JOINT LeftUpLeg
		{
			OFFSET 1.800000 -1.400000 0.085000
			CHANNELS 3 Zrotation Yrotation Xrotation
			JOINT LeftLeg
			{
				OFFSET 2.215000 -6.000000 0.000000
				CHANNELS 3 Zrotation Yrotation Xrotation
				JOINT LeftFoot
				{
					OFFSET 2.500000 -6.900000 0.000000
					CHANNELS 3 Zrotation Yrotation Xrotation
					JOINT LeftToeBase
					{
						OFFSET 0.200000 -0.500000 1.950000
						CHANNELS 3 Zrotation Yrotation Xrotation
						End Site
						{
							OFFSET 0.000000 0.000000 0.000000
						}
					}
				}
			}
		}
	}
	JOINT RHipJoint
	{
		OFFSET 0.000000 0.000000 0.000000
		CHANNELS 3 Zrotation Yrotation Xrotation
		JOINT RightUpLeg
		{
			OFFSET -1.800000 -1.400000 0.085000
			CHANNELS 3 Zrotation Yrotation Xrotation
			JOINT RightLeg
			{
				OFFSET -2.215000 -6.000000 0.000000
				CHANNELS 3 Zrotation Yrotation Xrotation
				JOINT RightFoot
				{
					OFFSET -2.500000 -6.900000 0.000000
					CHANNELS 3 Zrotation Yrotation Xrotation
					JOINT RightToeBase
					{
						OFFSET -0.200000 -0.500000 1.950000
						CHANNELS 3 Zrotation Yrotation Xrotation
						End Site
						{
							OFFSET 0.000000 0.000000 0.000000
						}
					}
				}
			}
		}
	}
	JOINT LowerBack
	{
		OFFSET 0.000000 0.000000 0.000000
		CHANNELS 3 Zrotation Yrotation Xrotation
		JOINT Spine
		{
			OFFSET -0.087000 1.940000 -0.288900
			CHANNELS 3 Zrotation Yrotation Xrotation
			JOINT Spine1
			{
				OFFSET 0.000000 1.950000 0.060000
				CHANNELS 3 Zrotation Yrotation Xrotation
				JOINT Neck
				{
					OFFSET 0.000000 0.000000 0.000000
					CHANNELS 3 Zrotation Yrotation Xrotation
					JOINT Neck1
					{
						OFFSET 0.000000 1.600000 0.340000
						CHANNELS 3 Zrotation Yrotation Xrotation
						JOINT Head
						{
							OFFSET 0.000000 1.667000 -0.240000
							CHANNELS 3 Zrotation Yrotation Xrotation
							End Site
							{
								OFFSET 0.000000 0.000000 0.000000
							}
						}
					}
				}
				JOINT LeftShoulder
				{
					OFFSET 0.000000 0.000000 0.000000
					CHANNELS 3 Zrotation Yrotation Xrotation
					JOINT LeftArm
					{
						OFFSET 2.700000 1.550000 -0.730000
						CHANNELS 3 Zrotation Yrotation Xrotation
						JOINT LeftForeArm
						{
							OFFSET 5.450000 0.000000 0.000000
							CHANNELS 3 Zrotation Yrotation Xrotation
							JOINT LeftHand
							{
								OFFSET 3.450000 0.000000 0.000000
								CHANNELS 3 Zrotation Yrotation Xrotation
								JOINT LeftHandIndex1
								{
									OFFSET 0.750000 0.000000 0.000000
									CHANNELS 3 Zrotation Yrotation Xrotation
									End Site
									{
										OFFSET 0.000000 0.000000 0.000000
									}
								}
							}
						}
					}
				}
				JOINT RightShoulder
				{
					OFFSET 0.000000 0.000000 0.000000
					CHANNELS 3 Zrotation Yrotation Xrotation
					JOINT RightArm
					{
						OFFSET -2.700000 1.550000 -0.730000
						CHANNELS 3 Zrotation Yrotation Xrotation
						JOINT RightForeArm
						{
							OFFSET -5.450000 0.000000 0.000000
							CHANNELS 3 Zrotation Yrotation Xrotation
							JOINT RightHand
							{
								OFFSET -3.450000 0.000000 0.000000
								CHANNELS 3 Zrotation Yrotation Xrotation
								JOINT RightHandIndex1
								{
									OFFSET -0.750000 0.000000 0.000000
									CHANNELS 3 Zrotation Yrotation Xrotation
									End Site
									{
										OFFSET 0.000000 0.000000 0.000000
									}
								}
							}
						}
					}
				}
			}
		}
	}
}
MOTION
Frames: 11
Frame Time: 0.016667
0.428000 17.439640 -1.522280 5.005125 -55.625274 -3.615009 -15.073872 12.009251 3.932873 -7.176730 -3.940040 -35.034507 -1.817856 5.042872 20.933742 -1.025954 3.315668 3.520298 0.622360 0.222510 0.601540 18.309847 -11.970459 2.540867 -5.793413 2.839314 -4.325489 4.954216 -6.909452 26.444441 -0.614819 -5.456024 2.718344 0.254610 0.280580 0.432010 -4.742430 1.650107 -6.872925 13.008069 14.164981 11.463508 5.110847 11.742565 18.963987 1.809558 0.703920 -9.049926 -0.744050 1.800378 48.464793 -16.922740 7.230540 -9.156170 -15.738134 -5.356787 5.027667 -14.892792 6.920526 -0.080177 -2.210087 -1.827498 -1.191883 -4.038389 2.475637 0.690320 0.375440 0.084280 0.297670 12.318199 8.854272 4.611441 34.676383 22.201427 3.958043 -117.711567 63.879538 -102.038073 1.837875 -0.720400 -0.295740 0.240570 -0.200370 -0.322540 
0.444610 17.374270 -1.522110 4.363137 -54.961735 -2.794740 -15.043236 11.914185 3.961402 -6.817658 -4.057958 -35.254778 -2.726829 4.687634 18.207371 -1.067967 3.010018 3.647402 0.626280 0.237440 0.584350 18.355544 -11.983293 2.546008 -5.260108 2.132620 -3.400790 4.441252 -6.664815 24.529211 -0.592329 -5.320433 2.780735 0.270860 0.302050 0.420980 -4.862495 1.741550 -6.879078 13.654256 13.879985 11.118114 5.008310 11.451516 18.807257 1.611034 0.165674 -8.831483 -1.601646 2.220356 47.443301 -15.952040 7.020370 -8.902570 -15.132789 -4.812065 4.746095 -14.927805 6.405310 -0.186072 -0.905344 -3.108442 -1.106469 -4.043932 2.500743 0.667760 0.384660 0.063590 0.307880 12.087476 8.600288 4.528203 35.061304 22.724771 4.585541 -115.296544 64.525000 -99.032777 1.827016 -0.461884 -0.298900 0.247930 -0.204210 -0.309780 
0.469250 17.257650 -1.524250 2.615164 -53.597222 -0.659761 -14.988688 11.683776 3.957044 -6.066928 -4.137274 -35.675666 -3.593442 3.838014 12.916692 -1.205443 2.562738 3.843476 0.613090 0.217660 0.552090 18.462358 -11.952146 2.588115 -4.185348 1.049020 -1.903268 4.335013 -6.494417 20.997875 -0.569072 -5.194931 2.842552 0.297090 0.361670 0.424080 -5.127650 1.955699 -6.860968 15.128677 13.590587 9.897120 5.297043 10.994436 18.531959 1.305410 -0.555508 -8.122318 -2.672841 2.584959 45.344267 -15.510010 6.788360 -8.665540 -14.243795 -3.629689 3.963383 -15.721767 4.861023 -0.556126 2.844978 -6.533440 -1.126362 -4.104592 2.539757 0.653180 0.431360 0.009410 0.310720 11.787373 7.628008 4.192682 35.341543 23.211725 5.324678 -110.619396 65.823081 -92.314545 1.689499 0.227417 -0.338100 0.270280 -0.170050 -0.316630 
0.497280 17.124100 -1.522580 0.932239 -52.591679 1.744100 -14.913671 11.388524 3.994323 -5.378220 -4.215130 -36.856190 -4.067333 3.231033 8.928194 -1.194143 2.328559 3.967695 0.586210 0.201960 0.463180 18.589532 -11.934757 2.651551 -3.338469 0.266817 -0.978278 4.567425 -6.365277 17.711199 -0.536885 -5.163892 2.879991 0.298620 0.468450 0.468420 -5.481586 2.313745 -6.896105 16.966571 13.259595 8.723073 4.611338 10.708237 17.208589 0.882186 -1.403348 -7.255145 -3.662685 3.348873 42.673509 -13.870890 6.889580 -5.715990 -13.468902 -1.999471 3.102644 -16.403745 4.230680 -1.462380 8.104152 -12.397866 -1.476490 -4.160832 2.732659 0.543950 0.519410 -0.066660 0.353590 11.663931 6.445937 3.636927 36.676412 23.750724 5.606741 -103.730361 68.919188 -81.879165 1.273582 1.614335 -0.316590 0.235380 -0.156080 -0.260450 
0.521670 16.997630 -1.519050 -0.080687 -52.220755 3.657431 -14.871928 11.110136 4.044471 -4.957141 -4.341361 -38.806301 -4.105352 3.068121 7.724756 -1.169762 2.302455 4.009076 0.542810 0.178390 0.391240 18.684600 -11.899522 2.674184 -3.196454 0.000913 -0.724457 5.405711 -6.395974 15.446108 -0.493707 -5.211471 2.889885 0.302780 0.572780 0.493430 -5.745511 2.639455 -6.875944 18.050278 13.279604 7.681721 3.725374 10.886567 14.906241 0.705002 -1.396041 -5.625691 -2.988926 3.753414 40.247275 -13.346140 7.734700 -3.085530 -13.465180 -0.505369 2.389095 -16.408989 3.225384 -1.925116 13.209276 -17.358821 -2.143560 -4.247285 2.890014 0.432560 0.621330 -0.147180 0.381250 11.545794 5.200210 1.366012 39.287559 23.219612 -2.033953 -80.328619 82.627303 -62.659107 0.203047 2.911399 -0.317460 0.216350 -0.142210 -0.221310 
0.547330 16.894240 -1.509760 -1.258659 -51.694221 5.131043 -14.799866 10.879484 4.061422 -4.448422 -4.332482 -40.613810 -3.492553 3.204996 9.381102 -1.148700 2.357315 3.976091 0.589560 0.225820 0.426870 18.780035 -11.941163 2.782870 -3.176272 -0.153872 -0.177057 6.711627 -6.489193 13.187997 -0.526940 -5.273189 2.863521 0.329200 0.561860 0.529430 -5.965236 3.095565 -6.952053 19.284729 13.250081 7.483663 3.263322 11.173756 13.793992 0.799975 -1.374470 -5.000344 -2.209232 3.571875 38.320969 -13.951010 8.169750 -3.337650 -13.348465 0.861015 1.459414 -18.608683 2.022939 -2.823011 19.742945 -24.157302 -3.673957 -4.245353 3.026562 0.404630 0.638480 -0.139440 0.400850 11.220660 3.931649 1.494714 40.705331 22.754013 -3.343618 -45.533861 83.818420 -37.461641 0.874430 -0.617271 -0.288480 0.176240 -0.179280 -0.217770 
0.555630 16.815480 -1.492130 -2.539569 -51.497551 6.991634 -14.753707 10.690338 4.077392 -3.809711 -4.365358 -42.950690 -2.101493 3.573676 13.229163 -1.151480 2.690381 3.870196 0.519840 0.142250 0.377440 18.862918 -11.916946 2.832410 -3.295579 0.075290 -0.368887 8.490390 -6.696706 12.039176 -0.484580 -5.384375 2.843527 0.320280 0.649460 0.531650 -6.101864 3.402435 -6.929115 20.093246 13.423044 6.463576 2.921307 11.530214 12.593825 0.795718 -1.318078 -4.282664 -1.714567 3.218968 36.167240 -14.604720 8.357150 -1.757410 -13.289561 2.931692 0.417186 -22.121044 0.053898 -3.134657 27.616297 -30.086169 -6.099326 -4.361808 3.034610 0.358230 0.722970 -0.219890 0.391570 11.090902 1.714979 1.573211 43.179428 22.963370 -0.683707 -21.225464 79.932981 -17.573141 1.135240 -1.606295 -0.341910 0.195590 -0.129740 -0.226160 
0.549030 16.790550 -1.462150 -3.515636 -50.723543 7.877320 -14.737511 10.673124 4.061033 -3.077543 -4.365850 -43.858635 -1.039916 4.080293 17.896995 -1.099550 3.198996 3.688453 0.460640 0.054950 0.332720 18.897671 -11.859918 2.865809 -3.304241 0.124438 0.002872 9.709929 -6.910116 11.626775 -0.469227 -5.491554 2.833366 0.281780 0.699040 0.514970 -6.087025 3.397492 -6.912693 20.366873 13.056873 5.970319 2.944282 11.404395 11.739489 0.852246 -1.165732 -4.066518 -1.366987 3.022998 35.579474 -14.239050 8.279360 -0.255440 -13.492470 4.180609 0.200364 -27.326630 -0.657663 -3.663775 37.410791 -35.878728 -10.110016 -4.387591 2.979496 0.352030 0.752180 -0.278840 0.380680 11.219787 0.236036 1.447190 45.322030 22.304376 0.492089 -2.823736 73.960437 -3.341613 1.296078 -1.922237 -0.380320 0.202940 -0.090300 -0.236550 
0.539850 16.807320 -1.417680 -3.836598 -49.355554 7.576630 -14.744569 10.737157 4.047323 -2.689392 -4.598020 -43.616820 -0.036308 4.637576 23.457859 -0.937606 3.866389 3.440170 0.396880 -0.016190 0.287890 18.891077 -11.794303 2.907663 -3.648286 0.055171 0.874877 11.103832 -7.241165 11.344941 -0.499702 -5.611840 2.825521 0.208970 0.703140 0.498510 -5.997916 3.256077 -6.938704 20.125019 12.321940 5.894067 3.029250 10.898719 11.264828 1.127921 -0.471077 -4.437108 -0.250313 2.303861 36.740828 -14.097120 8.214290 1.070810 -13.429976 4.562442 0.633308 -33.450489 -0.597319 -4.647714 47.915988 -42.072601 -16.047256 -4.309718 2.848740 0.355550 0.736140 -0.275610 0.380090 10.838789 -0.783436 1.426629 49.051370 21.558397 0.509802 4.786032 65.216362 1.452771 1.445229 -1.909717 -0.375660 0.197770 -0.078360 -0.221300 
0.522880 16.861090 -1.368120 -4.493042 -48.054657 7.030087 -14.715925 10.939982 3.975085 -1.807886 -4.598117 -42.020003 1.043149 5.043622 28.485981 -0.806981 4.557486 3.180303 0.376240 -0.051860 0.285370 18.889051 -11.814992 2.952944 -3.388943 -0.320585 1.680968 11.207452 -7.450503 11.796890 -0.546270 -5.610252 2.869437 0.153490 0.662430 0.442310 -5.939429 3.057801 -6.988997 20.529684 11.181924 6.559873 2.510488 10.214673 10.437488 1.366011 -0.020509 -4.871434 0.474500 1.979525 39.097490 -13.320150 8.111520 0.848980 -13.740303 4.794487 1.093933 -39.114782 -0.572629 -5.529597 57.853273 -47.478295 -23.267539 -4.138135 2.607681 0.436770 0.662250 -0.238360 0.380510 10.738506 -1.489507 1.348930 53.107104 20.739376 0.205835 6.840979 55.678618 1.976033 1.570970 -1.759784 -0.392560 0.229810 -0.085860 -0.234330 
0.504710 16.930430 -1.325650 -5.128972 -47.117188 6.821637 -14.700035 11.216389 3.964320 -0.420047 -4.614322 -40.514407 1.775190 5.563727 33.344671 -0.624291 5.362451 2.873405 0.334390 -0.113080 0.258830 18.858510 -11.813332 2.936869 -2.992313 -0.437523 1.193790 11.128921 -7.790652 13.907940 -0.554468 -5.561443 2.904429 0.074370 0.623120 0.406800 -5.780020 2.678221 -7.099611 20.591238 10.014945 7.670252 2.060517 9.645554 8.903743 1.306296 0.024323 -5.419056 0.310157 1.669111 41.281498 -12.191040 7.648440 1.527390 -14.169834 5.040151 1.629152 -44.117813 -0.380695 -6.301532 65.338743 -52.633583 -30.700673 -3.953356 2.358053 0.494540 0.592240 -0.209590 0.369010 11.151947 -1.760269 1.387170 55.954798 18.570313 -0.984476 7.248862 47.982014 1.536476 1.693833 -1.630396 -0.386110 0.225150 -0.076470 -0.234930 
